HIERARCHY
ROOT Hips
{
	OFFSET 0.00000 0.00000 0.00000
	CHANNELS 6 Xposition Yposition Zposition Zrotation Yrotation Xrotation 
	JOINT LHipJoint
	{
		OFFSET 0 0 0
		CHANNELS 3 Zrotation Yrotation Xrotation
		JOINT LeftUpLeg
		{
			OFFSET 1.55766 -1.60504 1.11378
			CHANNELS 3 Zrotation Yrotation Xrotation
			JOINT LeftLeg
			{
				OFFSET 2.29047 -6.29302 0.00000
				CHANNELS 3 Zrotation Yrotation Xrotation
				JOINT LeftFoot
				{
					OFFSET 2.52265 -6.93093 0.00000
					CHANNELS 3 Zrotation Yrotation Xrotation
					JOINT LeftToeBase
					{
						OFFSET 0.17633 -0.48446 2.02656
						CHANNELS 3 Zrotation Yrotation Xrotation
						End Site
						{
							OFFSET 0.00000 -0.00000 1.04989
						}
					}
				}
			}
		}
	}
	JOINT RHipJoint
	{
		OFFSET 0 0 0
		CHANNELS 3 Zrotation Yrotation Xrotation
		JOINT RightUpLeg
		{
			OFFSET -1.48599 -1.60504 1.11378
			CHANNELS 3 Zrotation Yrotation Xrotation
			JOINT RightLeg
			{
				OFFSET -2.27280 -6.24448 0.00000
				CHANNELS 3 Zrotation Yrotation Xrotation
				JOINT RightFoot
				{
					OFFSET -2.50834 -6.89161 0.00000
					CHANNELS 3 Zrotation Yrotation Xrotation
					JOINT RightToeBase
					{
						OFFSET -0.26967 -0.74090 2.08741
						CHANNELS 3 Zrotation Yrotation Xrotation
						End Site
						{
							OFFSET -0.00000 -0.00000 1.10614
						}
					}
				}
			}
		}
	}
	JOINT LowerBack
	{
		OFFSET 0 0 0
		CHANNELS 3 Zrotation Yrotation Xrotation
		JOINT Spine
		{
			OFFSET 0.06481 2.02437 -0.08472
			CHANNELS 3 Zrotation Yrotation Xrotation
			JOINT Spine1
			{
				OFFSET 0.00015 1.96711 0.18069
				CHANNELS 3 Zrotation Yrotation Xrotation
				JOINT Neck
				{
					OFFSET 0 0 0
					CHANNELS 3 Zrotation Yrotation Xrotation
					JOINT Neck1
					{
						OFFSET -0.29961 1.68293 -0.13041
						CHANNELS 3 Zrotation Yrotation Xrotation
						JOINT Head
						{
							OFFSET 0.59697 1.61501 -0.14669
							CHANNELS 3 Zrotation Yrotation Xrotation
							End Site
							{
								OFFSET 0.22973 1.74906 -0.10148
							}
						}
					}
				}
				JOINT LeftShoulder
				{
					OFFSET 0 0 0
					CHANNELS 3 Zrotation Yrotation Xrotation
					JOINT LeftArm
					{
						OFFSET 3.37968 1.02893 0.31147
						CHANNELS 3 Zrotation Yrotation Xrotation
						JOINT LeftForeArm
						{
							OFFSET 5.19807 -0.00000 -0.00000
							CHANNELS 3 Zrotation Yrotation Xrotation
							JOINT LeftHand
							{
								OFFSET 3.09370 -0.00000 -0.00000
								CHANNELS 3 Zrotation Yrotation Xrotation
								JOINT LeftFingerBase
								{
									OFFSET 0 0 0
									CHANNELS 3 Zrotation Yrotation Xrotation
									JOINT LeftHandIndex1
									{
										OFFSET 0.67263 -0.00000 -0.00000
										CHANNELS 3 Zrotation Yrotation Xrotation
										End Site
										{
											OFFSET 0.54229 -0.00000 -0.00000
										}
									}
								}
								JOINT LThumb
								{
									OFFSET 0 0 0
									CHANNELS 3 Zrotation Yrotation Xrotation
									End Site
									{
										OFFSET 0.55057 -0.00000 0.55057
									}
								}
							}
						}
					}
				}
				JOINT RightShoulder
				{
					OFFSET 0 0 0
					CHANNELS 3 Zrotation Yrotation Xrotation
					JOINT RightArm
					{
						OFFSET -3.38254 0.96355 -0.16120
						CHANNELS 3 Zrotation Yrotation Xrotation
						JOINT RightForeArm
						{
							OFFSET -5.45222 -0.00000 -0.00000
							CHANNELS 3 Zrotation Yrotation Xrotation
							JOINT RightHand
							{
								OFFSET -3.01284 -0.00000 -0.00000
								CHANNELS 3 Zrotation Yrotation Xrotation
								JOINT RightFingerBase
								{
									OFFSET 0 0 0
									CHANNELS 3 Zrotation Yrotation Xrotation
									JOINT RightHandIndex1
									{
										OFFSET -0.62230 -0.00000 -0.00000
										CHANNELS 3 Zrotation Yrotation Xrotation
										End Site
										{
											OFFSET -0.50171 -0.00000 -0.00000
										}
									}
								}
								JOINT RThumb
								{
									OFFSET 0 0 0
									CHANNELS 3 Zrotation Yrotation Xrotation
									End Site
									{
										OFFSET -0.50937 -0.00000 0.50937
									}
								}
							}
						}
					}
				}
			}
		}
	}
}
MOTION
Frames: 16
Frame Time: 0.0645161
0.00 0.00 0.00 0 0 0 0 0 0 -21 0 0 0 0 0 0 0 0 0 0 0 0 0 0 21 0 0 0 0 0 0 0 0 0 0 0 0 0 0 0 0 0 0 0 0 0 0 -16 0 0 21 0 0 11 0 0 0 -8 0 0 0 0 0 0 0 0 0 0 0 0 0 0 0 0 0 0 0 0 8 0 0 0 0 0 0 0 0 0 0 0 0 0 0 0 0 0
0.00 0.00 0.00 -96.6409 -81.7963 106.6050 0.0000 0.0000 0.0000 -3.0518 -13.1149 -24.7181 5.2217 13.6292 41.7718 0.9614 -1.4490 -18.1008 3.2365 -11.0684 -32.5108 0.0000 0.0000 0.0000 32.0037 -6.2381 -23.6790 -2.4519 -9.7499 28.1707 1.4308 29.2783 -11.6456 -0.0229 -0.9769 2.6851 6.3342 1.4926 -7.9003 0.6083 1.3831 -6.7773 -2.8332 0.3528 -2.4883 -30.5875 -9.4139 18.4573 41.8242 -20.5885 -5.2042 20.7030 -12.9477 4.0329 -0.0000 0.0000 0.0000 -83.7967 12.5261 29.3500 17.5073 -27.5217 -4.3191 -0.0000 0.0000 -39.2227 -2.2400 -9.3541 0.3643 -7.1250 0.0000 -0.0000 -20.5913 20.8106 12.7685 -0.0000 0.0000 0.0000 84.6537 -11.3361 19.3881 -15.0360 24.1962 -3.2407 0.0000 0.0000 24.8232 -4.7659 6.1656 -0.5130 7.1250 -0.0000 -0.0000 16.1133 -23.8078 8.5684
0.00 0.00 0.00 -91.8909 -78.6081 100.4580 0.0000 0.0000 0.0000 1.8242 -13.2132 -34.3819 9.7795 17.2840 58.7489 0.2300 1.6536 -9.8195 2.7090 -10.2084 -29.6542 0.0000 0.0000 0.0000 37.5757 -14.3072 -25.0542 -2.2028 -9.2763 26.6634 4.2776 37.4592 -3.1017 -0.7616 -5.5734 15.5515 9.4178 1.6191 -5.2812 1.7421 1.7004 -5.9724 -3.3993 0.4379 -3.0566 -30.2952 -9.7146 18.2465 42.2326 -20.5353 -6.4704 20.8143 -12.9378 3.7578 -0.0000 -0.0000 0.0000 -84.8652 11.9093 29.2658 18.1163 -28.3059 -4.6043 -0.0000 0.0000 -38.7363 1.5317 -10.5056 -0.2793 -7.1250 0.0000 -0.0000 -17.8925 19.6920 11.3801 -0.0000 -0.0000 0.0000 83.4437 -9.2012 17.0369 -14.2936 23.1529 -2.9426 0.0000 0.0000 27.9050 -5.4503 6.6064 -0.6289 7.1250 -0.0000 -0.0000 15.5727 -23.3758 8.4204
0.00 0.00 0.00 -114.3750 -73.6723 122.9930 0.0000 0.0000 0.0000 -15.2041 -5.6351 -51.0814 14.2533 19.1891 72.9766 0.1054 2.2924 -7.4252 3.3338 -11.2168 -33.0145 0.0000 0.0000 0.0000 45.7758 -19.2331 -26.1903 -2.1960 -9.2629 26.6212 9.1973 45.9936 13.6699 -3.1628 -10.9541 32.1252 12.2550 2.6557 -3.5666 3.0534 3.2278 -5.9816 -3.5941 1.0477 -3.8112 -30.4449 -9.9543 17.7119 41.1513 -21.8574 -2.9121 19.8988 -13.4485 5.1840 -0.0000 0.0000 0.0000 -86.1063 15.6484 30.1206 16.1086 -25.6677 -3.6929 -0.0000 0.0000 -36.1093 1.3648 -9.5108 -0.2256 -7.1250 0.0000 -0.0000 -18.1165 20.6409 11.1283 -0.0000 0.0000 0.0000 84.9340 -5.7503 18.7497 -16.4941 26.1860 -3.8614 0.0000 0.0000 22.0475 -7.6788 4.4779 -0.6031 7.1250 -0.0000 -0.0000 14.1860 -25.4280 6.9236
0.00 0.00 0.00 -120.8910 -73.2991 133.1210 0.0000 0.0000 0.0000 -29.0184 3.0932 -43.3168 9.0237 16.8229 56.1719 0.4575 -4.1308 -12.0334 2.8330 -10.4197 -30.3469 0.0000 0.0000 0.0000 51.1300 -25.7750 -32.1101 -2.3148 -9.4931 27.3503 15.4252 53.9161 26.1930 -3.9483 -12.0912 36.0555 11.2778 2.9843 -8.1638 3.2451 2.9450 -7.5015 -2.7039 0.8732 -2.9388 -31.5318 -9.6950 17.8552 39.7743 -22.1167 -1.0650 19.3638 -13.4677 5.6563 0.0000 0.0000 0.0000 -84.8670 17.3308 31.1183 15.8659 -25.3385 -3.5884 -0.0000 0.0000 -35.6494 0.2689 -8.9153 -0.0417 -7.1250 0.0000 -0.0000 -18.9406 21.2159 11.4309 0.0000 0.0000 0.0000 87.0421 -6.8812 20.9865 -15.9011 25.3864 -3.6035 0.0000 0.0000 22.8499 -4.5689 5.9925 -0.4780 7.1250 -0.0000 -0.0000 16.2752 -23.9757 8.5956
0.00 0.00 0.00 -169.7040 -70.4939 187.8750 0.0000 0.0000 0.0000 -27.1848 1.4293 -36.9617 5.1971 13.6023 41.6672 2.0218 -9.6018 -25.5263 0.6751 -5.2540 -14.6345 0.0000 0.0000 0.0000 40.5292 2.7372 -14.6823 -1.6130 -8.0086 22.7403 5.7688 38.1840 14.0591 -1.0542 6.5287 -18.3263 -0.9644 3.6851 -13.0685 -2.9874 4.1143 -10.7587 -2.1759 1.6744 -3.8910 -30.6531 -8.2749 19.4793 39.9372 -21.4942 1.6533 19.9162 -13.5177 5.7583 0.0000 -0.0000 0.0000 -78.2251 16.8485 23.6026 19.8137 -30.4173 -5.4367 -0.0000 0.0000 -37.3594 13.8963 -12.4345 -3.0494 -7.1250 0.0000 -0.0000 -9.2596 17.2842 6.1719 0.0000 -0.0000 0.0000 89.5407 -8.9975 30.2248 -16.3896 26.0461 -3.8154 0.0000 0.0000 24.0644 -3.0724 7.5685 -0.4050 7.1250 -0.0000 -0.0000 17.1538 -22.4744 9.7254
0.00 0.00 0.00 -163.1020 -67.8444 180.3430 0.0000 0.0000 0.0000 -20.9762 0.1815 -33.4048 5.1703 13.5731 41.5535 2.1437 -2.1125 -27.1380 1.2866 -7.1874 -20.2718 0.0000 0.0000 0.0000 31.3210 3.0111 -10.7560 -4.6969 -13.0341 39.4963 6.0469 39.0928 11.9831 -1.8598 8.5677 -24.4523 2.6858 3.4988 -11.1904 -1.0994 3.7413 -10.1066 -2.3433 1.3924 -4.0932 -30.2187 -7.7435 20.0045 39.2655 -19.9096 0.0152 19.7430 -12.6344 4.3323 0.0000 0.0000 0.0000 -83.3510 16.4694 22.9793 16.2493 -25.8575 -3.7540 -0.0000 0.0000 -33.1317 13.0037 -11.5933 -2.6572 -7.1250 0.0000 -0.0000 -9.8957 18.1910 6.4082 0.0000 0.0000 0.0000 82.5439 -8.9436 31.0055 -19.5763 30.1285 -5.3170 0.0000 0.0000 18.4833 -5.8642 5.7708 -0.5917 7.1250 -0.0000 -0.0000 15.3669 -24.1810 8.0035
0.00 0.00 0.00 -170.0050 -70.9039 186.8840 0.0000 0.0000 0.0000 -18.1662 3.7550 -21.5873 1.9280 8.7144 24.9060 1.3184 -1.8110 -21.1902 1.8305 -8.5036 -24.2545 0.0000 0.0000 0.0000 -5.7207 3.1767 -19.7189 -2.3870 -9.6295 27.7851 -0.0010 2.9853 -2.1447 -3.1236 10.8926 -31.9184 2.4895 2.5857 -8.5528 -0.4270 2.7657 -9.4601 -1.6985 0.9850 -4.9409 -30.4333 -7.7763 20.8175 41.6006 -18.7156 -5.8475 21.4038 -12.2622 2.5305 -0.0000 -0.0000 0.0000 -85.3034 12.1857 42.4557 19.4502 -29.9743 -5.2539 -0.0000 0.0000 -36.6902 8.1240 -12.8441 -1.8175 -7.1250 0.0000 -0.0000 -13.2139 17.2138 8.9543 -0.0000 -0.0000 0.0000 83.5225 -9.9669 0.0186 -15.3104 24.5768 -3.3540 0.0000 0.0000 19.1806 -10.7661 -0.8227 0.1564 7.1250 -0.0000 -0.0000 12.4866 -30.6766 4.4633
0.00 0.00 0.00 -166.3430 -81.8281 179.2310 0.0000 0.0000 0.0000 1.5122 -1.9288 -7.4920 0.7930 5.6843 15.8711 -0.0623 4.5635 -2.8582 4.3607 -12.6256 -37.9825 0.0000 0.0000 0.0000 3.5913 10.5252 -16.9397 -1.6307 -8.0504 22.8672 -0.4700 12.7785 -14.1619 -3.1050 10.8631 -31.8196 -0.7970 0.1569 -6.2657 0.6044 -0.1495 -8.7031 1.0890 -0.1774 -5.5366 -31.3998 -8.3317 21.3422 40.9700 -19.7709 -5.8123 20.9834 -12.7069 2.9254 0.0000 0.0000 0.0000 -81.1598 13.5297 26.1546 19.1057 -29.5499 -5.0829 -0.0000 0.0000 -35.5823 15.4001 -12.8672 -3.5101 -7.1250 0.0000 -0.0000 -8.2170 16.7368 5.5606 0.0000 0.0000 0.0000 86.0227 -8.3464 7.8647 -15.2085 24.4358 -3.3117 0.0000 0.0000 26.4506 -6.3027 4.6589 -0.5140 7.1250 -0.0000 -0.0000 15.1756 -25.2573 7.5022
0.00 0.00 0.00 -144.6770 -78.2073 156.7140 0.0000 0.0000 0.0000 11.7105 -5.2743 -14.7331 2.9573 10.6257 31.0276 0.1546 15.4502 12.4463 1.4554 -7.6253 -21.5815 0.0000 0.0000 0.0000 16.0513 10.0970 -16.0428 -1.5128 -7.7676 22.0105 0.0532 18.3048 -12.3847 -1.6662 8.1332 -23.1195 3.2627 1.2028 -4.1948 1.0999 1.3078 -8.2607 -0.6757 0.3431 -6.1937 -30.8907 -8.2090 20.3735 41.6649 -19.4290 -5.4023 21.2952 -12.5645 3.1176 0.0000 0.0000 0.0000 -81.1997 16.0939 16.9482 19.7374 -30.3247 -5.3981 -0.0000 0.0000 -35.3557 14.9850 -12.8083 -3.3959 -7.1250 0.0000 -0.0000 -8.5038 16.8277 5.7420 0.0000 0.0000 0.0000 86.1074 -4.5686 14.9800 -15.0510 24.2171 -3.2468 0.0000 0.0000 24.4393 -8.6413 3.1471 -0.4780 7.1250 -0.0000 -0.0000 13.6207 -26.7308 6.2036
0.00 0.00 0.00 -147.6900 -64.0577 160.8630 0.0000 0.0000 0.0000 -31.8253 -0.9215 -40.7280 4.4112 12.6883 38.2127 -0.1110 -7.0368 -1.5252 1.3664 -7.3983 -20.9010 0.0000 0.0000 0.0000 40.9500 -8.7010 -21.6690 -2.1062 -9.0838 26.0579 11.0868 48.5521 22.0475 -3.2373 -11.0697 32.5153 11.9857 4.6862 -2.9910 2.4860 6.0212 -7.2840 -4.0426 2.2667 -5.0788 -30.3373 -8.2822 16.2895 40.8571 -18.7388 -3.1037 20.3881 -11.7532 3.9832 0.0000 0.0000 0.0000 -84.3560 19.6040 24.6806 17.5364 -27.5594 -4.3326 -0.0000 0.0000 -33.5689 9.8751 -11.4519 -1.9795 -7.1250 0.0000 -0.0000 -12.0763 18.5007 7.7950 0.0000 0.0000 0.0000 84.7176 -2.9398 24.4024 -19.4209 29.9384 -5.2393 0.0000 0.0000 15.6509 -7.4860 0.8377 -0.1101 7.1250 -0.0000 -0.0000 14.7858 -28.9828 5.9515
0.00 0.00 0.00 -169.6980 -66.8496 185.5120 0.0000 0.0000 0.0000 -21.9708 -5.7013 -33.1963 4.5626 12.8736 38.8970 1.5631 -7.8593 -22.3794 0.3566 -3.8366 -10.6175 0.0000 0.0000 0.0000 21.3792 4.8246 -16.2754 -5.8086 -14.2403 44.2087 3.1117 36.5672 -9.8511 -3.7505 11.8207 -35.1007 0.1659 3.5071 -5.0684 -1.3232 4.1361 -9.5687 -1.4951 1.7826 -7.0507 -29.0878 -8.0974 15.1419 42.4599 -18.1952 -3.7387 21.1166 -11.6265 3.9172 -0.0000 -0.0000 0.0000 -82.7987 13.4118 30.2886 20.2685 -30.9644 -5.6688 -0.0000 0.0000 -35.8131 10.5099 -12.6000 -2.3175 -7.1250 0.0000 -0.0000 -11.5911 17.3281 7.7743 -0.0000 -0.0000 0.0000 84.7892 -5.3123 25.9826 -18.1833 28.3912 -4.6361 0.0000 0.0000 19.8209 -10.8197 2.6677 -0.5096 7.1250 -0.0000 -0.0000 12.0362 -27.2048 5.3116
0.00 0.00 0.00 -132.5670 -77.2487 141.6590 0.0000 0.0000 0.0000 15.0781 -10.4943 -27.2976 6.8822 15.2319 48.4272 0.4088 5.7862 11.4743 0.7624 -5.5761 -15.5592 0.0000 0.0000 0.0000 23.9453 5.1694 -10.3249 -0.9205 -6.1127 17.1118 1.0088 24.1467 -9.0539 -0.5687 4.8298 -13.4239 3.9780 2.5676 -1.1583 0.1146 3.3338 -7.7451 -2.2501 1.2981 -7.2183 -31.1847 -7.7185 15.3901 39.4585 -18.0557 -0.3912 19.9141 -11.1667 4.4730 0.0000 0.0000 0.0000 -82.1432 16.4491 15.1392 19.6373 -30.2029 -5.3477 -0.0000 0.0000 -34.9378 16.0373 -12.6085 -3.5904 -7.1250 0.0000 -0.0000 -7.7766 16.9534 5.2197 0.0000 0.0000 0.0000 87.8951 -5.8631 20.1850 -17.3482 27.3145 -4.2459 0.0000 0.0000 19.2664 -9.8019 2.3177 -0.4003 7.1250 -0.0000 -0.0000 12.8424 -27.5508 5.5765
0.00 0.00 0.00 -138.4590 -69.3059 153.6570 0.0000 0.0000 0.0000 -32.2756 -1.1176 -38.6728 4.2387 12.4714 37.4206 0.0109 -5.6337 -4.2608 1.1031 -6.6736 -18.7518 0.0000 0.0000 0.0000 44.1602 -15.7140 -28.3832 -2.1789 -9.2292 26.5150 10.8790 49.6179 38.8670 -4.9047 -13.2757 40.4095 12.2679 4.4772 -4.5885 2.2032 5.5200 -9.2171 -4.4376 1.7926 -6.3214 -32.6143 -7.9696 12.6604 37.0962 -17.5317 0.5482 18.6869 -10.4138 4.8340 -0.0000 -0.0000 0.0000 -83.1759 18.4145 23.3921 17.0828 -26.9668 -4.1248 -0.0000 0.0000 -32.8974 10.5591 -10.6178 -1.9671 -7.1250 0.0000 -0.0000 -11.6388 19.2965 7.2899 -0.0000 -0.0000 0.0000 91.1092 -10.1627 14.8836 -15.6197 25.0023 -3.4837 0.0000 0.0000 21.0042 -8.8701 1.2991 -0.2027 7.1250 -0.0000 -0.0000 13.6709 -28.5491 5.6226
0.00 0.00 0.00 -274.6860 -83.3158 283.4000 0.0000 0.0000 0.0000 -26.8790 -2.6384 -17.2100 1.8021 8.4411 24.0619 -0.1559 -18.5302 -11.5864 0.2374 -3.1356 -8.6566 0.0000 0.0000 0.0000 -10.7945 5.7372 -23.4288 -5.2869 -13.6998 42.0479 0.1542 -9.1191 2.9728 -1.5749 7.9180 -22.4653 0.5251 2.4252 -2.1440 -2.5678 2.8929 -7.5862 -3.0623 1.2168 -6.5286 -32.4065 -8.8117 14.3272 37.7608 -18.6326 -1.7689 18.8086 -11.0635 4.4325 0.0000 -0.0000 0.0000 -85.0890 15.2581 26.2709 19.8486 -30.4595 -5.4544 -0.0000 0.0000 -34.2886 13.0699 -13.6637 -3.1389 -7.1250 0.0000 -0.0000 -9.8119 16.0998 6.8079 0.0000 -0.0000 0.0000 85.3967 -7.4616 5.2235 -14.1551 22.9560 -2.8883 0.0000 0.0000 27.6264 -10.5057 1.9104 -0.3542 7.1250 -0.0000 -0.0000 12.3547 -27.9574 5.2335
0.00 0.00 0.00 -284.4980 -81.2408 291.9510 0.0000 0.0000 0.0000 -32.0923 1.9869 -17.1899 1.6075 7.9956 22.7007 -1.4333 -24.8950 -5.7642 0.0881 1.9147 5.2701 0.0000 0.0000 0.0000 -9.5195 4.3623 -36.0756 -10.2302 -17.5373 60.2550 -0.0165 3.5588 -3.2035 -1.3257 7.2918 -20.5827 -2.0570 1.9075 -0.8465 -2.6994 2.1599 -6.8041 -1.7609 1.0179 -6.5743 -32.2167 -8.7157 14.1659 37.5322 -18.3267 -1.7356 18.6959 -10.8693 4.2906 0.0000 -0.0000 0.0000 -84.4340 14.1169 26.1246 19.2998 -29.7895 -5.1789 -0.0000 0.0000 -36.0596 14.7830 -13.1868 -3.4451 -7.1250 0.0000 -0.0000 -8.6414 16.4572 5.9075 0.0000 -0.0000 0.0000 86.2681 -5.8893 3.7612 -14.4868 23.4264 -3.0190 0.0000 0.0000 26.7997 -12.3784 1.2630 -0.2772 7.1250 -0.0000 -0.0000 10.9940 -28.6141 4.4614
